<?xml version="1.0" encoding="utf-8"?>
<!-- Uploaded to: SVG Repo, www.svgrepo.com, Generator: SVG Repo Mixer Tools -->
<svg fill="#000000" width="800px" height="800px" viewBox="0 0 32 32" version="1.1" xmlns="http://www.w3.org/2000/svg">
<title>speech-bubbles</title>
<path d="M28.037 26.004c1.556-1.056 2.522-2.523 2.522-4.145 0-3.215-3.787-5.821-8.46-5.821s-8.46 2.606-8.46 5.821 3.788 5.821 8.46 5.821c1.138 0 2.223-0.155 3.214-0.435l4.276 3.192-1.551-4.432zM24.549 8.592c0-3.697-5.088-6.693-11.363-6.693s-11.363 2.997-11.363 6.693c0 1.739 1.126 3.323 2.972 4.513l-1.791 7.305 6.158-5.557c1.251 0.279 2.607 0.432 4.024 0.432 6.276 0 11.363-2.997 11.363-6.693z"></path>
</svg>