<?xml version="1.0" encoding="utf-8"?>
<svg viewBox="0 0 24 24" width="16" height="16" fill="none" stroke="currentColor" stroke-width="1.6" stroke-linecap="round" stroke-linejoin="round" xmlns="http://www.w3.org/2000/svg">
<path d="M12 3a9 9 0 1 0 0 18c1.1 0 1.8-.9 1.8-2 0-.5-.2-1-.5-1.3-.3-.4-.5-.8-.5-1.3 0-1.1.9-2 2-2h2a3 3 0 0 0 3-3c0-4.4-3.6-8.4-7.8-8.4Z"/>
<circle cx="7.5" cy="10.5" r="1"/><circle cx="8.5" cy="15" r="1"/><circle cx="14.5" cy="7" r="1"/><circle cx="17" cy="11" r="1"/>
</svg>
